<?xml version="1.0" encoding="UTF-8" standalone="no"?>
<svg
   viewBox="0 0 256 256"
   version="1.1"
   id="svg4"
   width="256"
   height="256"
   xmlns="http://www.w3.org/2000/svg"
   xmlns:svg="http://www.w3.org/2000/svg">
  <defs
     id="defs4" />
  <path
     fill="#efefef"
     d="M 2,0 V 16 H 14 V 4 L 10,0 Z"
     id="path1" />
  <path
     fill="#ffffff"
     d="M 10,3.98 V 0 l 4,4 z"
     opacity="0.65"
     id="path2" />
  <path
     fill="#212121"
     d="m 13,5 v 5 L 9,5 Z"
     opacity="0.2"
     id="path3" />
  <path
     fill="#999999"
     d="M 2,0 V 16 H 14 V 4 H 13.988 L 13.992,3.992 10.008,0.006 10,0.014 V 0 Z m 1,1 h 6 v 4 h 4 V 15 H 3 Z M 10,1.412 12.586,4 H 10 Z"
     id="path4" />
  <path
     id="text4"
     style="font-size:13.3333px;line-height:1.25;fill:#b3b3b3"
     d="m 4.34375,3.1523438 v 9.6953122 h 3.4375 c 0.6727386,0 1.2261315,-0.06207 1.6601562,-0.183594 0.4383653,-0.121524 0.8404988,-0.324871 1.2050778,-0.611328 0.308159,-0.238711 0.55404,-0.543187 0.736328,-0.912109 0.182292,-0.368922 0.273438,-0.793624 0.273438,-1.2753906 0,-0.6727389 -0.188806,-1.2276507 -0.566406,-1.6660156 C 10.712241,7.7565132 10.194439,7.4665791 9.5390625,7.3320312 V 7.28125 C 9.8585031,7.1215299 10.124895,6.9177224 10.339844,6.6738281 L 9.4824219,5.6035156 c -0.00988,0.2367609 -0.049566,0.4478649 -0.125,0.6289063 C 9.2749572,6.4364136 9.1317261,6.6041674 8.9277344,6.734375 8.7237426,6.8645826 8.5023854,6.9507383 8.2636719,6.9941406 8.024958,7.0332033 7.7044244,7.0527344 7.3007812,7.0527344 H 5.6328125 V 4.2539062 h 1.5371094 c 0.4296844,10e-8 0.7892814,0.01454 1.0800781,0.044922 0.2907967,0.026042 0.5381957,0.097657 0.7421875,0.2148438 0.00291,0.00168 0.00492,0.00417 0.00781,0.00586 V 3.2675781 C 8.9350417,3.2537569 8.8707945,3.2402623 8.8046875,3.2304688 8.4531274,3.1783855 7.9223041,3.1523438 7.2148438,3.1523438 Z M 5.6328125,8.140625 h 2.0253906 c 0.4253445,0 0.7849411,0.01606 1.0800781,0.050781 C 9.0377588,8.2217881 9.291668,8.2918844 9.5,8.4003906 c 0.3081577,0.1605894 0.521485,0.3559045 0.638672,0.5859375 0.117187,0.2300333 0.175781,0.5410179 0.175781,0.9316407 0,0.3428802 -0.05708,0.6228332 -0.169922,0.8398432 -0.112847,0.217014 -0.2901488,0.408855 -0.5332029,0.578126 -0.230033,0.156243 -0.524525,0.265405 -0.8847656,0.326171 -0.3602406,0.05643 -0.8224864,0.08399 -1.3867187,0.08399 H 5.6328125 Z" />
</svg>
