<?xml version="1.0" encoding="UTF-8"?><svg id="a" xmlns="http://www.w3.org/2000/svg" viewBox="0 0 12 16"><path d="M0,0v16h12V4L8,0H0Z" style="fill:#efefef;"/><path d="M8,4V0l4,4h-4Z" style="fill:#fff; isolation:isolate; opacity:.65;"/><path d="M11,5v5l-4-5h4Z" style="fill:#212121; isolation:isolate; opacity:.2;"/><path d="M0,0v16h12V4L8,0H0ZM1,1h6v4h4v10H1V1ZM8,1.4l2.6,2.6h-2.6V1.4Z" style="fill:#999;"/><path d="M1.56,14.49v-4.34h.92c.17,0,.32.02.44.07.13.04.24.12.35.24.1.11.18.25.22.4s.06.36.06.62c0,.2-.01.36-.03.49-.02.13-.07.26-.14.38-.08.14-.2.25-.34.33s-.32.12-.55.12h-.31v1.7h-.61ZM2.18,10.73v1.48h.29c.12,0,.22-.02.29-.05.07-.04.12-.09.15-.15.03-.06.05-.14.06-.23,0-.09,0-.19,0-.3,0-.1,0-.2,0-.29,0-.09-.02-.17-.05-.24-.03-.07-.08-.12-.14-.16-.06-.04-.16-.06-.28-.06h-.32Z" style="fill:#999;"/><path d="M3.97,11.17c0-.17.03-.33.09-.46.06-.13.14-.25.24-.33.1-.09.21-.15.33-.2s.25-.07.37-.07.25.02.37.07.23.11.33.2c.1.09.17.2.23.33.06.13.09.29.09.46v2.29c0,.18-.03.34-.09.47-.06.13-.14.24-.23.32-.1.09-.21.16-.33.2s-.25.07-.37.07-.25-.02-.37-.07-.23-.11-.33-.2c-.1-.09-.18-.19-.24-.32-.06-.13-.09-.29-.09-.47v-2.29ZM4.58,13.46c0,.15.04.26.12.33s.18.11.29.11.21-.04.29-.11.12-.18.12-.33v-2.29c0-.15-.04-.26-.12-.33s-.18-.11-.29-.11-.21.04-.29.11-.12.18-.12.33v2.29Z" style="fill:#999;"/><path d="M8.54,11.39h-.61v-.14c0-.14-.03-.27-.1-.37s-.18-.16-.33-.16c-.08,0-.15.02-.21.05-.05.03-.09.07-.13.12-.03.05-.05.11-.07.18-.01.07-.02.14-.02.21,0,.09,0,.16,0,.21,0,.06.02.11.04.15.02.04.06.08.11.12.05.03.11.07.19.1l.47.19c.13.05.25.12.33.19.08.07.15.15.2.25.04.1.07.21.09.33s.02.27.02.42c0,.18-.02.35-.05.51-.04.16-.09.29-.17.4-.08.11-.2.2-.33.27-.14.06-.3.1-.5.1-.15,0-.29-.03-.41-.08-.13-.05-.24-.13-.33-.22-.09-.09-.17-.2-.22-.33s-.08-.26-.08-.41v-.23h.61v.19c0,.11.03.22.1.31s.18.14.33.14c.11,0,.19-.01.24-.04.06-.03.1-.07.13-.13.03-.06.05-.12.06-.2s0-.17,0-.27c0-.11,0-.21-.01-.28s-.03-.13-.05-.18c-.03-.04-.06-.08-.11-.11-.04-.03-.11-.06-.18-.09l-.44-.18c-.26-.11-.44-.25-.53-.44-.09-.18-.13-.41-.13-.68,0-.16.02-.32.07-.46s.11-.27.2-.38c.08-.11.19-.19.32-.25.13-.06.29-.09.46-.09.15,0,.29.03.42.09.12.06.23.13.33.23.18.2.28.42.28.67v.3Z" style="fill:#999;"/><path d="M9.4,14.49v-3.76h-.71v-.58h2.03v.58h-.71v3.76h-.61Z" style="fill:#999;"/></svg>