<?xml version="1.0" encoding="UTF-8" standalone="no"?>
<svg
   width="255.99998"
   height="255.99998"
   viewBox="0 0 67.733328 67.733329"
   version="1.1"
   id="svg1"
   xmlns="http://www.w3.org/2000/svg"
   xmlns:svg="http://www.w3.org/2000/svg">
  <defs
     id="defs1" />
  <g
     id="layer1">
    <rect
       style="opacity:1;fill:#f4c434;fill-opacity:1;stroke:none;stroke-width:0.132292;stroke-linejoin:bevel"
       id="rect1"
       width="67.73333"
       height="67.73333"
       x="0"
       y="0" />
    <rect
       style="opacity:1;fill:none;fill-opacity:1;stroke:#ffffff;stroke-width:1;stroke-linecap:round;stroke-linejoin:bevel;stroke-miterlimit:10;stroke-dasharray:none"
       id="rect2"
       width="52.186722"
       height="34.999172"
       x="7.7733064"
       y="10.891553"
       ry="6.41854" />
    <path
       style="fill:#ffffff;stroke:none;stroke-width:0.264583px;stroke-linecap:butt;stroke-linejoin:miter;stroke-opacity:1"
       d="M 27.068722,46.05988 12.364284,57.556785 18.751733,46.05988 Z"
       id="path2" />
    <path
       id="path3"
       style="color:#000000;fill:#ffffff;stroke-linecap:round;-inkscape-stroke:none"
       d="m 19.734713,15.000635 c -0.314744,-0.001 -0.62828,0.0032 -0.939995,0.0072 h -0.0098 c -0.599104,-0.0039 -1.073286,0.05511 -1.976107,0.153996 -1.747743,0.184187 -3.545101,0.08652 -5.375382,0.111621 a 0.5,0.5 0 0 0 -0.49196,0.505913 0.5,0.5 0 0 0 0.505912,0.494026 c 1.784859,-0.02447 3.613987,0.07834 5.4684,-0.117305 h 0.0021 c 0.912117,-0.09991 1.335514,-0.152315 1.869137,-0.148312 h 0.0062 0.0036 c 1.2477,-0.01624 2.435619,-0.02312 3.572392,0.252181 l 0.02532,0.0057 0.02532,0.0041 c 1.281591,0.171123 2.626904,0.350004 4.01991,0.269234 2.522593,0.04599 5.012469,-0.118825 7.437272,0.138493 l 0.03927,0.0041 h 0.03876 c 1.872868,-0.09094 3.761827,0.03247 5.674073,0.12299 l 0.0155,0.0021 0.0155,-0.0021 c 1.139983,-0.01684 1.922751,0.07425 2.921786,0.132808 l 0.01964,0.0021 h 0.01964 c 1.868463,-0.03484 3.782902,0.07419 5.709212,-0.06046 1.802982,-0.09874 3.507888,-0.26255 5.244125,-0.433565 h 0.0036 c 1.013149,-0.03739 2.002385,-0.02692 3.041158,0.118856 A 0.5,0.5 0 0 0 57.18359,16.13855 0.5,0.5 0 0 0 56.757776,15.574243 c -1.120787,-0.157355 -2.17564,-0.165806 -3.220475,-0.127124 h -0.01602 l -0.0155,0.0021 c -1.744617,0.171889 -3.443051,0.333629 -5.230172,0.431498 h -0.0041 -0.0041 c -1.83069,0.128602 -3.71797,0.02528 -5.62653,0.05891 -0.0025,-1.48e-4 -0.0053,1.48e-4 -0.0078,0 -0.955031,-0.05622 -1.781151,-0.147996 -2.957443,-0.132809 -1.874394,-0.08873 -3.770522,-0.2106 -5.693192,-0.12299 l -0.07596,-0.0021 c -2.526502,-0.259354 -5.03334,-0.09574 -7.486365,-0.142627 h -0.01964 l -0.01964,0.0021 c -1.264996,0.07334 -2.539492,-0.09169 -3.815271,-0.261999 -0.954249,-0.226366 -1.899067,-0.275512 -2.830835,-0.278536 z m -4.244702,4.04058 c -1.514295,-0.02157 -3.028679,0.04878 -4.535124,0.203088 a 0.5,0.5 0 0 0 -0.447001,0.546737 0.5,0.5 0 0 0 0.548803,0.447001 c 2.938551,-0.300986 5.90729,-0.272153 8.824268,0.13901 l 0.02325,0.0036 h 0.02377 c 2.460763,0.108198 4.907485,0.08459 7.319966,0.248047 l 0.04496,0.0041 0.04496,-0.0062 c 3.127619,-0.359641 6.256939,-0.602551 9.380823,-0.468705 h 0.0078 0.0078 c 2.662292,0.03182 5.307066,0.127538 7.914245,0.523482 l 0.01344,0.0021 h 0.01395 c 3.842496,0.364695 7.586774,0.162152 11.490255,0.20929 l 0.06615,0.0015 0.06666,-0.01757 c 0.143054,-0.03712 0.279285,-0.09072 0.410311,-0.15813 0.131026,-0.06742 0.249546,-0.119508 0.38654,-0.300757 a 0.5,0.5 0 0 0 -0.09767,-0.699182 0.5,0.5 0 0 0 -0.699182,0.09767 c 0.05972,-0.07901 0.01567,-0.01831 -0.04703,0.01395 -0.04773,0.02456 -0.105069,0.04361 -0.156063,0.06046 -3.913583,-0.04383 -7.60704,0.151991 -11.326441,-0.201022 -2.667808,-0.402883 -5.344559,-0.499681 -8.00778,-0.53175 h -0.0155 c -3.178567,-0.134936 -6.334045,0.112682 -9.460921,0.470772 -2.45427,-0.164778 -4.897627,-0.139789 -7.312732,-0.24598 -1.486379,-0.207459 -2.983798,-0.320237 -4.482413,-0.341581 z m 16.865637,4.221965 c -0.508595,-0.0074 -1.018377,-0.0056 -1.529623,0.0083 l -0.0021,0.0021 h -0.0036 c -3.94843,0.152879 -7.867511,0.286731 -11.861292,0.472839 -2.661051,-0.123838 -5.308797,-0.09324 -7.935432,-0.187585 a 0.5,0.5 0 0 0 -0.517798,0.480591 0.5,0.5 0 0 0 0.482658,0.517281 c 2.66819,0.09583 5.321214,0.06605 7.953002,0.189652 h 0.02325 0.02325 c 3.989794,-0.186066 7.910119,-0.321779 11.865426,-0.474906 3.960751,-0.107179 7.954923,0.552788 12.035441,0.502295 3.773187,-0.0063 5.816492,-0.0027 9.316227,0.142627 l -0.01757,-0.0021 c 1.226627,0.09055 3.516882,-0.08939 4.710824,-0.318327 A 0.5,0.5 0 0 0 57.294694,24.009904 0.5,0.5 0 0 0 56.7092,23.613029 c -1.042179,0.199838 -3.42789,0.378074 -4.447274,0.302824 h -0.0083 -0.0078 c -3.515532,-0.145949 -5.582905,-0.148927 -9.357052,-0.142627 h -0.0041 -0.0021 C 39.413528,23.81674 35.915809,23.315135 32.355648,23.26318 Z m 1.964738,3.977018 -0.02532,0.0021 c -2.523296,0.277007 -4.566346,0.252221 -7.664131,0.328145 -2.859319,-0.0092 -5.739973,-0.237887 -8.658387,-0.181901 h -0.0021 -0.0021 c -2.324998,0.06003 -4.702443,0.08917 -7.052282,0.517798 a 0.5,0.5 0 0 0 -0.40256,0.581877 0.5,0.5 0 0 0 0.581877,0.402559 c 2.238602,-0.408334 4.564705,-0.441597 6.896736,-0.501778 2.853164,-0.05473 5.726945,0.172017 8.636683,0.181384 h 0.0057 l 0.0078,-0.0021 c 3.072748,-0.07558 5.147109,-0.04864 7.719426,-0.328145 3.523267,-0.03819 7.056582,0.168023 10.5854,0.392741 h 0.0062 0.0078 c 3.425868,0.127199 6.451486,0.230184 9.739974,0.117305 0.670612,-0.01877 1.363811,-0.0363 2.068607,-0.139009 a 0.5,0.5 0 0 0 0.42168,-0.566374 0.5,0.5 0 0 0 -0.566374,-0.423747 c -0.626998,0.09137 -1.280132,0.11036 -1.952852,0.129191 h -0.0021 -0.0021 c -3.242368,0.111296 -6.23864,0.01163 -9.656258,-0.115238 H 44.99777 C 41.468029,27.410268 37.91071,27.201245 34.34364,27.240198 Z m -18.955432,4.35684 c -1.510339,0.03522 -2.948551,0.308638 -4.341337,0.258382 a 0.5,0.5 0 0 0 -0.517798,0.480591 0.5,0.5 0 0 0 0.482658,0.519348 c 2.05676,0.07421 3.965427,-0.422012 5.808431,-0.198954 h 0.0057 l 0.0078,0.0021 c 2.798246,0.252229 5.576339,0.228407 8.314738,0.429431 h 0.01964 0.02119 c 4.622743,-0.03609 9.26493,0.126486 13.914396,0.06253 h 0.03101 l 0.03152,-0.0041 c 3.508273,-0.485833 7.12246,-0.08254 10.779187,-0.19482 2.093476,-0.03195 4.32949,0.13736 6.433716,0.02687 l 0.02687,-0.0016 0.20929,-0.03514 a 0.5,0.5 0 0 0 0.41031,-0.574642 0.5,0.5 0 0 0 -0.574642,-0.411862 l -0.134358,0.02325 c -2.00964,0.104653 -4.232978,-0.06026 -6.386691,-0.02739 h -0.0041 -0.0041 c -3.546646,0.109614 -7.18284,-0.298516 -10.840682,0.199471 -4.613313,0.06317 -9.249583,-0.09875 -13.897343,-0.06253 h -0.0021 C 22.384075,31.886428 19.631046,31.905886 16.915763,31.66215 h -0.0155 c -0.520342,-0.06199 -1.03186,-0.07685 -1.535306,-0.06511 z m -2.519743,4.19716 c -0.646612,0.0015 -1.302729,0.05187 -1.958537,0.211873 a 0.5,0.5 0 0 0 -0.366903,0.603064 0.5,0.5 0 0 0 0.605131,0.367419 c 1.455659,-0.355148 3.117102,-0.04419 4.824512,-0.07028 3.808143,0.109075 7.626487,0.213426 11.453048,0.136943 4.2558,0.02719 8.475748,-0.355529 12.63282,0.05271 h 0.0021 0.0016 c 3.151542,0.280678 6.300829,0.189195 9.420097,0.12454 h 0.0021 0.0021 c 1.886093,-0.05089 3.747414,-0.240984 5.527311,0.01602 l 0.05271,0.0078 0.05271,-0.0041 c 0.379559,-0.02588 0.929194,0.0067 1.650545,-0.06253 a 0.5,0.5 0 0 0 0.449068,-0.546737 0.5,0.5 0 0 0 -0.544669,-0.449068 c -0.615388,0.05905 -1.096431,0.03204 -1.563212,0.05891 -1.926686,-0.270719 -3.830213,-0.06942 -5.648234,-0.02015 h -0.0036 c -3.121274,0.06472 -6.232439,0.152065 -9.302791,-0.120923 h -0.0062 c -4.284008,-0.419968 -8.538132,-0.02931 -12.730489,-0.05684 h -0.0057 -0.0078 c -3.795157,0.07585 -7.597327,-0.02738 -11.404472,-0.136426 h -0.01137 -0.01189 c -0.783997,0.01343 -1.614674,-0.06782 -2.467032,-0.09973 -0.21309,-0.008 -0.427318,-0.01292 -0.642855,-0.0124 z m 2.982763,4.139282 c -2.058774,0.03469 -3.201881,0.140967 -5.273063,0.164331 a 0.5,0.5 0 0 0 -0.494543,0.505912 0.5,0.5 0 0 0 0.505912,0.494027 c 2.101579,-0.02371 3.247193,-0.130149 5.279264,-0.164331 h 0.0021 c 2.775612,-0.05272 5.604417,0.655306 8.580355,0.408244 2.221175,0.142271 4.27878,-0.431489 6.266284,-0.312126 4.951649,0.575796 9.852972,-0.176245 14.643551,0.253731 l 0.02739,0.0021 h 0.02945 c 2.983932,-0.07352 6.05413,0.226429 9.133293,-0.273368 0.640553,-0.06218 1.44127,0.116766 2.321822,0.03669 a 0.5,0.5 0 0 0 0.451135,-0.544669 0.5,0.5 0 0 0 -0.543119,-0.451136 c -0.666225,0.06059 -1.463402,-0.122216 -2.33009,-0.03721 l -0.0155,0.0021 -0.0155,0.0021 c -2.910851,0.477483 -5.934403,0.191672 -9.000485,0.265101 -4.946874,-0.438975 -9.835344,0.306203 -14.60531,-0.251665 h -0.01343 l -0.01395,-0.0021 c -2.222604,-0.135775 -4.287134,0.451138 -6.296773,0.316777 l -0.03876,-0.0041 -0.03721,0.0041 C 21.616953,40.588149 18.79869,39.877432 15.830042,39.93348 Z" />
  </g>
</svg>
