<?xml version="1.0" encoding="UTF-8" standalone="no"?>
<svg
   viewBox="0 0 256 256"
   version="1.1"
   id="svg4"
   width="256"
   height="256"
   xmlns="http://www.w3.org/2000/svg"
   xmlns:svg="http://www.w3.org/2000/svg">
  <defs
     id="defs4" />
  <path
     fill="#ffffff"
     d="M 1,1 H 15 V 15 H 1 Z"
     id="path1" />
  <path
     fill="#999999"
     d="M 1,1 V 15 H 15 V 1 Z M 2,2 H 14 V 14 H 2 Z"
     id="path2" />
  <path
     fill="#666666"
     d="M 3,3 H 13 V 5 H 3 Z"
     id="path3" />
  <path
     id="path4"
     style="fill:#b9b9b9;fill-opacity:1"
     d="M 7.4277344,6 C 7.6424753,6.1531195 7.8211696,6.34509 7.9453125,6.5722656 8.0194501,6.7065149 8.0748007,6.8498443 8.1132812,7 H 13 V 6 Z M 8.1386719,8 C 8.0864955,8.2584568 7.9862808,8.5013666 7.8339844,8.7128906 v 0.00195 l -0.00195,0.00195 C 7.7652831,8.8082665 7.6503813,8.8534895 7.5703125,8.9335938 7.613093,8.9580524 7.6576703,8.9793863 7.703125,9 H 13 V 8 Z m 0.5019531,2 c 0.092992,0.264446 0.1386735,0.550322 0.1386719,0.847656 0,0.05137 -0.00138,0.101741 -0.00391,0.152344 H 13 V 10 Z M 8.5234375,12 C 8.3619931,12.323172 8.1388034,12.603308 7.859375,12.820312 l -0.00195,0.002 C 7.7762936,12.885896 7.6917234,12.945569 7.6054688,13 H 13 v -1 z" />
  <text
     xml:space="preserve"
     style="font-style:normal;font-weight:normal;font-size:9.62794px;line-height:1.25;font-family:sans-serif;fill:#b9b9b9;fill-opacity:1;stroke:none;stroke-width:1"
     x="2.0597718"
     y="13"
     id="text4"><tspan
       id="tspan4"
       x="2.0597718"
       y="13"
       style="font-size:9.62794px;fill:#b9b9b9;fill-opacity:1;stroke-width:1">B</tspan></text>
  <path
     style="opacity:1;fill:none;fill-opacity:1;stroke:#666666;stroke-width:0.5;stroke-linecap:butt;stroke-linejoin:bevel;stroke-dasharray:none;stroke-opacity:1;paint-order:normal"
     id="path7"
     d="M 4.9497476,8.2643105 C 4.8037111,8.327146 3.9572104,7.2030357 3.8034168,7.1627557 3.6426996,7.1206624 2.2951203,7.6651827 2.1855105,7.5403326 2.0806226,7.4208609 2.8881319,6.2684217 2.8789156,6.1097081 2.8692844,5.9438494 1.9349899,4.8304913 2.0198582,4.6876655 2.1010704,4.5509923 3.4466392,4.9628561 3.5947369,4.9050456 3.7495016,4.8446326 4.5196552,3.6120192 4.6817164,3.6485981 c 0.1550799,0.035003 0.1791778,1.441988 0.2799235,1.5649728 0.1052811,0.1285214 1.5155567,0.4800825 1.5308478,0.6455153 0.014632,0.1583063 -1.3160431,0.616007 -1.4018765,0.7498263 -0.089697,0.1398436 0.011747,1.5897337 -0.1408636,1.655398 z"
     transform="translate(6.7887857,0.16794407)" />
  <path
     id="path9"
     d="m 11.460938,3.5644531 c -0.05981,-1.101e-4 -0.104736,0.019751 -0.136719,0.035156 -0.04264,0.02057 -0.07158,0.041403 -0.09961,0.064453 -0.05606,0.0461 -0.104716,0.09901 -0.158203,0.1601563 -0.106973,0.1222908 -0.224702,0.278608 -0.341797,0.4355468 -0.117096,0.1569399 -0.233853,0.3135058 -0.326171,0.4316406 -0.04368,0.0559 -0.08152,0.1019746 -0.109376,0.1328126 -0.03877,-0.0046 -0.09126,-0.012961 -0.15625,-0.025391 C 9.9914843,4.7717982 9.8072925,4.7291471 9.6230469,4.6894531 9.4388012,4.6497532 9.2565513,4.6122869 9.1015625,4.5917969 9.0240676,4.5815569 8.954441,4.575035 8.8828125,4.578125 c -0.035814,0.0015 -0.071952,0.0047 -0.1191406,0.019531 -0.047189,0.01481 -0.1190872,0.04531 -0.1699219,0.1308594 -0.049245,0.08287 -0.043495,0.1523058 -0.037109,0.1992188 0.0038,0.027885 0.010844,0.050683 0.017578,0.072266 h 2.21875 C 10.893645,4.8711731 11.009954,4.7127866 11.125,4.5585938 11.20397,4.4527529 11.273685,4.3683869 11.34375,4.28125 11.35734,4.3815039 11.37085,4.474807 11.38281,4.5917969 11.39714,4.7318947 11.40984,4.8706753 11.42383,5 h 0.503906 C 11.912,4.8655874 11.895769,4.7058631 11.878906,4.5410156 11.859726,4.3535198 11.84091,4.1674057 11.8125,4.0136719 11.7983,3.9368019 11.78288,3.8679512 11.75781,3.8007812 c -0.01253,-0.03359 -0.02797,-0.06712 -0.05664,-0.1074218 -0.02867,-0.0403 -0.07871,-0.09918 -0.175781,-0.1210938 -0.02351,-0.00531 -0.04452,-0.00778 -0.06445,-0.00781 z"
     style="fill:#ffffff" />
</svg>
