<?xml version="1.0" encoding="UTF-8" standalone="no"?>
<svg
   aria-hidden="true"
   focusable="false"
   data-prefix="fas"
   data-icon="tag"
   class="svg-inline--fa fa-tag fa-w-16"
   role="img"
   viewBox="0 0 14.2 14.1"
   version="1.1"
   id="svg4"
   width="14.2"
   height="14.1"
   xmlns="http://www.w3.org/2000/svg"
   xmlns:svg="http://www.w3.org/2000/svg">
  <defs
     id="defs4" />
  <path
     fill="#999999"
     d="M 0,0 V 5.6 L 8.5,14.1 14.2,8.4 5.7,0 Z M 2.5,2.5 C 3.2,1.8 4.3,1.8 5,2.5 5.7,3.2 5.7,4.3 5,5 4.3,5.7 3.2,5.7 2.5,5 1.8,4.3 1.8,3.2 2.5,2.5 Z"
     id="path1" />
  <path
     fill="#ffffff"
     d="M 1,1 V 5.2 L 8.5,12.7 12.7,8.5 5.2,1 Z M 2.5,2.5 C 3.2,1.8 4.3,1.8 5,2.5 5.7,3.2 5.7,4.3 5,5 4.3,5.7 3.2,5.7 2.5,5 1.8,4.3 1.8,3.2 2.5,2.5 Z"
     id="path2" />
  <path
     fill="#999999"
     d="M 2.5,2.5 C 1.8,3.2 1.8,4.3 2.5,5 3.2,5.7 4.3,5.7 5,5 5.7,4.3 5.7,3.2 5,2.5 4.3,1.8 3.2,1.8 2.5,2.5 Z M 3.2,3.2 C 3.5,2.9 4,2.9 4.3,3.2 4.6,3.5 4.6,4 4.3,4.3 4,4.6 3.5,4.6 3.2,4.3 2.9,3.9 2.9,3.5 3.2,3.2 Z"
     id="path3" />
  <path
     fill="#ff8700"
     d="M 5.117,7.566 7.592,5.09 11.127,8.625 8.652,11.1 Z"
     id="path4"
     style="fill:#999999;fill-opacity:1" />
</svg>
